<svg width="46" height="23" viewBox="0 0 46 23" fill="none" xmlns="http://www.w3.org/2000/svg">
<path d="M3.875 18H0.476562V0H3.875V18ZM6.14844 11.543C6.14844 10.2852 6.39062 9.16406 6.875 8.17969C7.35938 7.19531 8.05469 6.43359 8.96094 5.89453C9.875 5.35547 10.9336 5.08594 12.1367 5.08594C13.8477 5.08594 15.2422 5.60938 16.3203 6.65625C17.4062 7.70312 18.0117 9.125 18.1367 10.9219L18.1602 11.7891C18.1602 13.7344 17.6172 15.2969 16.5312 16.4766C15.4453 17.6484 13.9883 18.2344 12.1602 18.2344C10.332 18.2344 8.87109 17.6484 7.77734 16.4766C6.69141 15.3047 6.14844 13.7109 6.14844 11.6953V11.543ZM9.53516 11.7891C9.53516 12.9922 9.76172 13.9141 10.2148 14.5547C10.668 15.1875 11.3164 15.5039 12.1602 15.5039C12.9805 15.5039 13.6211 15.1914 14.082 14.5664C14.543 13.9336 14.7734 12.9258 14.7734 11.543C14.7734 10.3633 14.543 9.44922 14.082 8.80078C13.6211 8.15234 12.9727 7.82812 12.1367 7.82812C11.3086 7.82812 10.668 8.15234 10.2148 8.80078C9.76172 9.44141 9.53516 10.4375 9.53516 11.7891ZM19.7539 11.5664C19.7539 9.62109 20.2148 8.05469 21.1367 6.86719C22.0664 5.67969 23.3164 5.08594 24.8867 5.08594C26.2773 5.08594 27.3594 5.5625 28.1328 6.51562L28.2734 5.32031H31.3438V17.5781C31.3438 18.6875 31.0898 19.6523 30.582 20.4727C30.082 21.293 29.375 21.918 28.4609 22.3477C27.5469 22.7773 26.4766 22.9922 25.25 22.9922C24.3203 22.9922 23.4141 22.8047 22.5312 22.4297C21.6484 22.0625 20.9805 21.5859 20.5273 21L22.0273 18.9375C22.8711 19.8828 23.8945 20.3555 25.0977 20.3555C25.9961 20.3555 26.6953 20.1133 27.1953 19.6289C27.6953 19.1523 27.9453 18.4727 27.9453 17.5898V16.9102C27.1641 17.793 26.1367 18.2344 24.8633 18.2344C23.3398 18.2344 22.1055 17.6406 21.1602 16.4531C20.2227 15.2578 19.7539 13.6758 19.7539 11.707V11.5664ZM23.1406 11.8125C23.1406 12.9609 23.3711 13.8633 23.832 14.5195C24.293 15.168 24.9258 15.4922 25.7305 15.4922C26.7617 15.4922 27.5 15.1055 27.9453 14.332V9C27.4922 8.22656 26.7617 7.83984 25.7539 7.83984C24.9414 7.83984 24.3008 8.17188 23.832 8.83594C23.3711 9.5 23.1406 10.4922 23.1406 11.8125ZM33.4297 11.543C33.4297 10.2852 33.6719 9.16406 34.1562 8.17969C34.6406 7.19531 35.3359 6.43359 36.2422 5.89453C37.1562 5.35547 38.2148 5.08594 39.418 5.08594C41.1289 5.08594 42.5234 5.60938 43.6016 6.65625C44.6875 7.70312 45.293 9.125 45.418 10.9219L45.4414 11.7891C45.4414 13.7344 44.8984 15.2969 43.8125 16.4766C42.7266 17.6484 41.2695 18.2344 39.4414 18.2344C37.6133 18.2344 36.1523 17.6484 35.0586 16.4766C33.9727 15.3047 33.4297 13.7109 33.4297 11.6953V11.543ZM36.8164 11.7891C36.8164 12.9922 37.043 13.9141 37.4961 14.5547C37.9492 15.1875 38.5977 15.5039 39.4414 15.5039C40.2617 15.5039 40.9023 15.1914 41.3633 14.5664C41.8242 13.9336 42.0547 12.9258 42.0547 11.543C42.0547 10.3633 41.8242 9.44922 41.3633 8.80078C40.9023 8.15234 40.2539 7.82812 39.418 7.82812C38.5898 7.82812 37.9492 8.15234 37.4961 8.80078C37.043 9.44141 36.8164 10.4375 36.8164 11.7891Z" fill="black"/>
</svg>
