<svg width="88" height="81" viewBox="0 0 88 81" fill="none" xmlns="http://www.w3.org/2000/svg">
<path opacity="0.1" d="M0.123375 46.1463C0.123375 70.0393 21.7027 80.7761 45.269 80.7761C68.8352 80.7761 87.9395 61.407 87.9395 37.5139C87.9395 13.6208 72.5974 0.776123 49.0311 0.776123C25.4648 0.776123 2.10345 18.6431 0.123375 46.1463Z" fill="#38CC44"/>
<path d="M57.7955 64.3615L60.5809 59.1117L67.9735 66.6114L71.6162 63.3973L64.3308 55.6833L69.2592 52.7906L50.6484 45.3949L57.7955 64.3615Z" fill="#38CC44"/>
<circle cx="45.1575" cy="40.2591" r="3.53934" stroke="#38CC44" stroke-width="3"/>
<path d="M58.5729 46.4725C59.4491 44.5836 59.9382 42.4786 59.9382 40.2594C59.9382 32.0957 53.3203 25.4778 45.1566 25.4778C36.9929 25.4778 30.375 32.0957 30.375 40.2594C30.375 48.423 36.9929 55.041 45.1566 55.041C47.2945 55.041 49.3264 54.5871 51.1612 53.7705" stroke="#38CC44" stroke-width="3"/>
<path d="M55.3304 62.823C52.2273 64.2243 48.7834 65.0042 45.1574 65.0042C31.4909 65.0042 20.4121 53.9254 20.4121 40.2589C20.4121 26.5925 31.4909 15.5137 45.1574 15.5137C58.8238 15.5137 69.9026 26.5925 69.9026 40.2589C69.9026 43.7653 69.1733 47.1014 67.8581 50.1237" stroke="#38CC44" stroke-width="3"/>
</svg>
