<svg width="89" height="81" viewBox="0 0 89 81" fill="none" xmlns="http://www.w3.org/2000/svg">
<path opacity="0.1" d="M0.73275 46.1463C0.73275 70.0393 22.3121 80.7761 45.8783 80.7761C69.4446 80.7761 88.5488 61.407 88.5488 37.5139C88.5488 13.6208 73.2067 0.776123 49.6405 0.776123C26.0742 0.776123 2.71282 18.6431 0.73275 46.1463Z" fill="#38CC44"/>
<path d="M72.4301 28.1506C72.4301 34.3914 67.3709 39.4506 61.1301 39.4506C54.8893 39.4506 49.8301 34.3914 49.8301 28.1506C49.8301 21.9098 54.8893 16.8506 61.1301 16.8506C67.3709 16.8506 72.4301 21.9098 72.4301 28.1506Z" stroke="#38CC44" stroke-width="3"/>
<path d="M44.3297 22.6505H44.2297C38.3297 22.6505 32.3297 22.6505 26.4297 22.6505C25.7297 22.6505 25.0297 22.8505 24.4297 23.0505C23.9297 23.1505 23.5297 23.4505 23.0297 23.6505C22.0297 24.1505 21.3297 25.0505 20.8297 25.9505C20.2297 27.0505 19.9297 28.2505 19.9297 29.4505C19.9297 37.0505 19.9297 44.6505 19.9297 52.2505C19.9297 52.9505 20.0297 53.5505 20.1297 54.2505C20.3297 55.0505 20.6297 55.8505 21.1297 56.4505C21.8297 57.2505 22.4297 57.8505 23.3297 58.3505C24.2297 58.8505 25.2297 59.1505 26.3297 59.2505C27.3297 59.2505 28.3297 59.2505 29.3297 59.2505C29.5297 59.2505 29.6297 59.2505 29.9297 59.2505C29.9297 59.5505 30.0297 59.7505 30.0297 60.0505C30.0297 62.4505 30.0297 64.8505 30.0297 67.3505C30.0297 67.9505 30.1297 68.4505 30.4297 68.8505C30.5297 68.9505 30.6297 69.0505 30.8297 69.1505C31.4297 69.4505 32.2297 69.4505 32.7297 69.0505C33.0297 68.8505 33.3297 68.5505 33.5297 68.3505C33.9297 68.0505 34.2297 67.6505 34.6297 67.3505C35.2297 66.8505 35.8297 66.3505 36.4297 65.8505C36.9297 65.4505 37.5297 64.9505 38.0297 64.5505C38.7297 63.9505 39.4297 63.4505 40.0297 62.8505C40.4297 62.5505 40.8297 62.2505 41.2297 61.8505C41.6297 61.4505 42.1297 61.1505 42.5297 60.7505C43.1297 60.2505 43.6297 59.7505 44.2297 59.3505C49.3297 59.3505 54.4297 59.3505 59.5297 59.3505C60.0297 59.3505 60.5297 59.3505 61.1297 59.2505C61.9297 59.1505 62.6297 58.8505 63.3297 58.4505C64.2297 57.9505 65.0297 57.1505 65.6297 56.1505C66.2297 55.0505 66.6297 53.9505 66.6297 52.6505C66.6297 50.1505 66.6297 47.6505 66.6297 45.2505C66.6297 45.1505 66.6297 45.0505 66.6297 45.0505" stroke="#38CC44" stroke-width="3"/>
<path d="M42.3297 32.6505H42.2297C36.3297 32.6505 34.3297 32.6505 28.4297 32.6505" stroke="#38CC44" stroke-width="3"/>
<path d="M46.3297 47.6505H46.2297C40.3297 47.6505 34.3297 47.6505 28.4297 47.6505" stroke="#38CC44" stroke-width="3"/>
<path d="M55.6187 47.6505H55.5187C49.6187 47.6505 54.6188 47.6505 48.7188 47.6505" stroke="#38CC44" stroke-width="3"/>
<path d="M33.3297 39.9504H33.2297C27.3297 39.9504 34.3297 39.9504 28.4297 39.9504" stroke="#38CC44" stroke-width="3"/>
<path d="M48.3297 39.9504H48.2297C39.3297 39.9504 41.3297 39.9504 35.4297 39.9504" stroke="#38CC44" stroke-width="3"/>
<path d="M59.1109 25.6007C59.5731 25.6007 60.1277 25.6007 60.6822 25.6007C60.6822 25.7856 60.6822 25.9704 60.6822 26.0629C60.6822 28.3736 60.6822 30.7768 60.6822 33.0875C60.6822 34.0118 60.9595 34.3815 61.7914 34.7512C62.0687 34.8436 62.346 34.8436 62.6232 34.7512C63.2703 34.5664 63.7324 34.1042 63.7324 33.1799C63.7324 30.1297 63.7324 27.172 63.7324 24.1218C63.7324 24.0294 63.7324 23.937 63.7324 23.8445C63.64 23.29 62.993 22.643 62.346 22.5505C61.3292 22.5505 60.2201 22.5505 59.2034 22.5505C58.6488 22.5505 58.0942 22.8278 57.9094 23.3824C57.2623 24.4916 58.0018 25.6007 59.1109 25.6007Z" fill="#38CC44"/>
</svg>
