<svg width="89" height="81" viewBox="0 0 89 81" fill="none" xmlns="http://www.w3.org/2000/svg">
<path opacity="0.1" d="M0.42025 46.1463C0.42025 70.0393 21.9996 80.7761 45.5658 80.7761C69.1321 80.7761 88.2363 61.407 88.2363 37.5139C88.2363 13.6208 72.8942 0.776123 49.328 0.776123C25.7617 0.776123 2.40032 18.6431 0.42025 46.1463Z" fill="#38CC44"/>
<path d="M73.0821 39.1403C73.0821 44.8911 68.3856 49.5876 62.6348 49.5876C56.884 49.5876 52.1875 44.8911 52.1875 39.1403C52.1875 33.3895 56.884 28.693 62.6348 28.693C64.1683 28.693 65.606 28.9805 66.852 29.5556" stroke="#38CC44" stroke-width="3"/>
<path d="M75.0953 55.6259L68.8652 47.5748" stroke="#38CC44" stroke-width="3"/>
<path d="M70.4941 27.9263H77.2034V35.2106" stroke="#38CC44" stroke-width="3"/>
<path d="M76.9157 28.1179L67.9061 38.4694L64.7432 36.2649L58.2256 43.3575" stroke="#38CC44" stroke-width="3"/>
<path d="M11.4531 42.7835L14.1368 42.5918C14.2327 43.6461 14.5202 44.5087 14.9995 45.1796C15.4787 45.8505 16.1496 46.4256 17.1081 46.809C18.0665 47.1924 19.1209 47.4799 20.3669 47.4799C21.4212 47.4799 22.3796 47.2882 23.2423 47.0007C24.1049 46.7132 24.68 46.2339 25.0634 45.6589C25.4467 45.0838 25.6384 44.5087 25.6384 43.8378C25.6384 43.1668 25.4467 42.5918 25.0634 42.1125C24.68 41.6333 24.009 41.1541 23.1464 40.8665C22.5713 40.6748 21.3253 40.2914 19.4084 39.8122C17.4915 39.333 16.0538 38.9496 15.287 38.4704C14.2327 37.8953 13.5618 37.3202 12.9867 36.4576C12.5074 35.6908 12.2199 34.8282 12.2199 33.8697C12.2199 32.8154 12.5074 31.7611 13.1784 30.8985C13.8493 30.0359 14.7119 29.2691 15.8621 28.7898C17.0122 28.2148 18.2582 28.0231 19.6959 28.0231C21.2295 28.0231 22.6672 28.3106 23.8173 28.7898C25.0634 29.2691 25.926 30.0359 26.5969 30.9943C27.2678 31.9528 27.5554 33.1029 27.6512 34.3489L24.9675 34.5406C24.7758 33.1988 24.2966 32.1445 23.5298 31.4736C22.6672 30.8026 21.4212 30.4192 19.7918 30.4192C18.0665 30.4192 16.8205 30.7068 16.0538 31.3777C15.3828 32.0486 14.9995 32.7196 14.9995 33.678C14.9995 34.4448 15.287 35.1157 15.8621 35.595C16.4372 36.0742 17.779 36.5534 20.0793 37.1285C22.3796 37.7036 23.9132 38.087 24.7758 38.4704C26.0218 39.0454 26.8844 39.7164 27.5554 40.6748C28.1304 41.5374 28.418 42.5918 28.418 43.7419C28.418 44.8921 28.1304 45.9464 27.4595 46.9049C26.7886 47.8633 25.926 48.7259 24.68 49.2052C23.434 49.6844 22.0921 50.0678 20.5586 50.0678C18.6416 50.0678 17.0122 49.7803 15.7662 49.2052C14.3285 48.5343 13.3701 47.6716 12.6033 46.6173C11.8365 45.4672 11.4531 44.2212 11.4531 42.7835Z" fill="#38CC44" stroke="#38CC44" stroke-width="0.35"/>
<path d="M32.252 49.5876V28.3097H47.5874V30.8017H35.0315V37.3193H46.8206V39.8113H35.0315V46.9998H48.0667V49.4918H32.252V49.5876Z" fill="#38CC44" stroke="#38CC44" stroke-width="0.35"/>
</svg>
