<svg width="89" height="81" viewBox="0 0 89 81" fill="none" xmlns="http://www.w3.org/2000/svg">
<path opacity="0.1" d="M0.877281 46.1463C0.877281 70.0393 22.4566 80.7761 46.0229 80.7761C69.5891 80.7761 88.6934 61.407 88.6934 37.5139C88.6934 13.6208 73.3513 0.776123 49.785 0.776123C26.2187 0.776123 2.85735 18.6431 0.877281 46.1463Z" fill="#38CC44"/>
<g clip-path="url(#clip0)">
<path d="M23.8673 48.7336C23.2946 50.0647 24.0582 50.445 24.0582 50.445C24.3446 50.8253 25.5854 52.1564 26.1581 52.8219C26.6353 53.3924 27.1125 53.9628 27.5898 54.5333C28.6397 55.7693 29.3078 57.1954 29.7851 58.7167C30.1669 60.1428 30.5487 61.569 30.9304 62.9951C31.0259 63.3754 31.1213 63.7557 31.2168 64.136C31.3122 64.4213 31.7895 64.6114 31.7895 64.6114H40.857C40.857 64.6114 41.2388 64.5164 41.2388 64.136C41.1433 63.2804 40.3797 60.7133 40.2843 59.7625C40.6661 59.8576 40.857 59.8576 41.1433 59.8576C42.4796 60.1428 43.9113 60.2379 45.2476 60.2379C46.3929 60.2379 47.8246 59.8576 48.97 59.8576C49.1609 59.8576 49.3518 59.7625 49.5427 59.7625C49.829 59.6674 49.9245 59.7625 50.0199 60.0477C50.2108 60.7133 50.7835 63.4705 50.9744 64.041C51.0699 64.3262 51.6425 64.5164 51.6425 64.5164H61.2827C61.2827 64.5164 61.8554 64.5164 61.76 63.9459C61.5691 62.9001 61.3782 61.8542 61.1873 60.9034C61.0918 60.333 60.9964 59.6674 60.9009 59.097C60.9009 59.0019 60.9964 58.8118 61.0918 58.7167C63.0008 57.5758 64.7188 56.2447 66.1505 54.6284C67.2005 53.4875 68.4413 51.3007 69.2049 49.8745C69.3003 49.6844 69.3958 49.5893 69.5867 49.4942C70.3502 49.0189 71.2093 48.4484 72.0683 47.973C72.8319 47.4976 73.5954 47.1173 74.359 46.737C75.1226 46.2616 75.2181 46.5469 75.5044 45.6912C75.7907 44.5502 76.0771 43.4093 76.1725 42.2684C76.3634 41.2226 76.4589 40.1767 76.4589 39.1309C76.4589 38.2752 76.4589 37.4195 76.0771 36.6589C75.7907 35.9933 75.4089 35.8032 74.6454 35.8983C73.6909 35.9933 72.7364 36.0884 71.8774 36.0884C71.3047 36.0884 70.732 35.8983 70.1593 35.8032C69.7776 35.7081 69.4912 35.613 69.1094 35.518C68.6322 35.4229 68.4413 34.9475 68.1549 34.6623C67.7731 34.1869 67.5823 33.7115 67.2005 33.2361C66.9141 32.8558 66.6278 32.5706 66.246 32.1903C65.8642 31.7149 65.387 31.2395 65.0052 30.7641C64.9097 30.669 65.0052 30.3838 65.0052 30.1937C65.4824 28.8626 65.9597 27.6266 66.3414 26.2955C66.6278 25.3447 66.8187 24.394 67.0096 23.3481C67.105 22.2072 67.0096 22.2072 66.1505 22.3974C65.1006 22.6826 64.0507 22.9678 63.0008 23.2531C61.5691 23.7284 60.2328 24.4891 59.0874 25.5349C58.6102 25.9152 58.6102 25.9152 58.133 25.63C56.7967 25.0595 54.4105 23.4432 52.5016 23.2531C52.4061 23.2531 50.879 22.7777 49.1609 23.4432M16.9951 32.0952C16.9951 23.6334 23.8673 16.7878 32.3622 16.7878C40.857 16.7878 47.7292 23.6334 47.7292 32.0952C47.7292 40.557 40.857 47.4025 32.3622 47.4025C23.8673 47.4025 16.9951 40.4619 16.9951 32.0952Z" stroke="#38CC44" stroke-width="3"/>
<path d="M59.2938 36.6277C58.6257 36.6277 58.1484 37.1031 58.1484 37.7686C58.1484 38.4341 58.6257 38.9095 59.3893 39.0046C60.0574 39.0046 60.5346 38.4341 60.5346 37.7686C60.5346 37.1031 59.9619 36.6277 59.2938 36.6277Z" fill="#38CC44" stroke="#38CC44" stroke-width="3"/>
<path d="M27.1123 33.9017H28.6395C28.6395 35.0426 29.0213 35.8983 29.6894 36.4687C30.3575 37.0392 31.2165 37.2293 32.2665 37.2293C33.2209 37.2293 33.8891 37.0392 34.3663 36.5638C34.8435 36.0884 35.1299 35.613 35.1299 34.8524C35.1299 34.282 34.939 33.9017 34.5572 33.5213C34.1754 33.141 33.6027 32.8558 32.7437 32.4755L31.2165 31.905C29.7848 31.3346 28.8304 30.7641 28.2577 30.2887C27.685 29.8134 27.3986 29.0527 27.3986 28.0069C27.3986 27.0561 27.7804 26.2004 28.4486 25.5349C29.1167 24.7743 30.0712 24.394 31.312 24.2989V22.5875H32.8392V24.394C33.9845 24.5841 34.939 25.0595 35.6071 25.9152C36.2753 26.6758 36.657 27.7217 36.657 28.9577H35.0344C35.0344 28.3872 34.939 27.9118 34.8435 27.5315C34.7481 27.1512 34.4618 26.7709 34.1754 26.4857C33.8891 26.2004 33.5073 26.0103 33.1255 25.9152C32.7437 25.8201 32.2665 25.7251 31.8847 25.7251C31.312 25.7251 30.8348 25.8201 30.3575 26.0103C29.9757 26.2004 29.5939 26.4857 29.403 26.7709C29.2121 27.0561 29.0213 27.5315 29.0213 27.9118C29.0213 28.4823 29.2121 28.9577 29.5939 29.338C29.9757 29.6232 30.6439 30.0035 31.5983 30.3838L33.1255 30.9543C34.3663 31.4297 35.2253 32.0001 35.798 32.4755C36.3707 33.046 36.657 33.7115 36.657 34.6623C36.657 35.7081 36.2753 36.5638 35.6071 37.3244C34.939 37.99 33.9845 38.3703 32.7437 38.5604V40.557H31.2165V38.5604C29.8803 38.3703 28.8304 37.8949 28.0668 37.1343C27.3032 36.3736 27.1123 35.3278 27.1123 33.9017Z" fill="#38CC44" stroke="#38CC44"/>
</g>
<defs>
<clipPath id="clip0">
<rect width="62.1363" height="50.4857" fill="white" transform="translate(15.5635 15.3617)"/>
</clipPath>
</defs>
</svg>
