<svg width="25" height="25" viewBox="0 0 25 25" fill="none" xmlns="http://www.w3.org/2000/svg">
<path d="M24.2606 10.2248H12.4919V15.0619H19.215C18.9251 16.6254 18.0456 17.9479 16.7199 18.8339C15.5993 19.5831 14.1694 20.0261 12.4886 20.0261C9.23453 20.0261 6.48208 17.8274 5.49837 14.873C5.25081 14.1238 5.10749 13.3225 5.10749 12.4984C5.10749 11.6743 5.25081 10.873 5.49837 10.1238C6.48534 7.17264 9.23779 4.97394 12.4919 4.97394C14.3257 4.97394 15.9707 5.60586 17.2671 6.84365L20.8502 3.25733C18.684 1.23778 15.8599 0 12.4919 0C7.60912 0 3.38436 2.8013 1.32899 6.88599C0.482085 8.57329 0 10.4821 0 12.5016C0 14.5212 0.482085 16.4267 1.32899 18.114C3.38436 22.1987 7.60912 25 12.4919 25C15.8664 25 18.6938 23.8795 20.759 21.9707C23.1205 19.7948 24.4853 16.5896 24.4853 12.7818C24.4853 11.8958 24.4072 11.0456 24.2606 10.2248Z" fill="white"/>
</svg>
